<mxfile host="app.diagrams.net" modified="2024-01-02T16:36:41.747Z" agent="Mozilla/5.0 (Windows NT 10.0; Win64; x64) AppleWebKit/537.36 (KHTML, like Gecko) Chrome/120.0.0.0 Safari/537.36" etag="QJRRdbW0_N14AR3yzIP1" version="22.1.16" type="github">
  <diagram id="kgpKYQtTHZ0yAKxKKP6v" name="Page-1">
    <mxGraphModel dx="1050" dy="522" grid="1" gridSize="10" guides="1" tooltips="1" connect="1" arrows="1" fold="1" page="1" pageScale="1" pageWidth="850" pageHeight="1100" math="0" shadow="0">
      <root>
        <mxCell id="0" />
        <mxCell id="1" parent="0" />
        <mxCell id="Sr5DOC8Win13ZZO1pdSx-1" value="Diagram Activity" style="swimlane;whiteSpace=wrap;html=1;startSize=20;" vertex="1" parent="1">
          <mxGeometry x="170" y="120" width="400" height="880" as="geometry" />
        </mxCell>
        <mxCell id="Sr5DOC8Win13ZZO1pdSx-4" value="" style="group" vertex="1" connectable="0" parent="Sr5DOC8Win13ZZO1pdSx-1">
          <mxGeometry y="20" width="400" height="990" as="geometry" />
        </mxCell>
        <mxCell id="Sr5DOC8Win13ZZO1pdSx-2" value="Pelanggan" style="swimlane;whiteSpace=wrap;html=1;" vertex="1" parent="Sr5DOC8Win13ZZO1pdSx-4">
          <mxGeometry width="200" height="860" as="geometry" />
        </mxCell>
        <mxCell id="Sr5DOC8Win13ZZO1pdSx-7" style="edgeStyle=orthogonalEdgeStyle;rounded=0;orthogonalLoop=1;jettySize=auto;html=1;exitX=0.5;exitY=1;exitDx=0;exitDy=0;entryX=0.5;entryY=0;entryDx=0;entryDy=0;" edge="1" parent="Sr5DOC8Win13ZZO1pdSx-2" source="Sr5DOC8Win13ZZO1pdSx-5" target="Sr5DOC8Win13ZZO1pdSx-6">
          <mxGeometry relative="1" as="geometry" />
        </mxCell>
        <mxCell id="Sr5DOC8Win13ZZO1pdSx-5" value="START" style="rounded=1;whiteSpace=wrap;html=1;arcSize=50;" vertex="1" parent="Sr5DOC8Win13ZZO1pdSx-2">
          <mxGeometry x="40" y="60" width="120" height="40" as="geometry" />
        </mxCell>
        <mxCell id="Sr5DOC8Win13ZZO1pdSx-9" style="edgeStyle=orthogonalEdgeStyle;rounded=0;orthogonalLoop=1;jettySize=auto;html=1;exitX=0.5;exitY=1;exitDx=0;exitDy=0;entryX=0.5;entryY=0;entryDx=0;entryDy=0;" edge="1" parent="Sr5DOC8Win13ZZO1pdSx-2" source="Sr5DOC8Win13ZZO1pdSx-6" target="Sr5DOC8Win13ZZO1pdSx-8">
          <mxGeometry relative="1" as="geometry" />
        </mxCell>
        <mxCell id="Sr5DOC8Win13ZZO1pdSx-6" value="Datang ke tempat laundry" style="rounded=1;whiteSpace=wrap;html=1;" vertex="1" parent="Sr5DOC8Win13ZZO1pdSx-2">
          <mxGeometry x="40" y="140" width="120" height="40" as="geometry" />
        </mxCell>
        <mxCell id="Sr5DOC8Win13ZZO1pdSx-8" value="menyerahkan pakaian" style="rounded=1;whiteSpace=wrap;html=1;" vertex="1" parent="Sr5DOC8Win13ZZO1pdSx-2">
          <mxGeometry x="40" y="220" width="120" height="40" as="geometry" />
        </mxCell>
        <mxCell id="Sr5DOC8Win13ZZO1pdSx-20" style="edgeStyle=orthogonalEdgeStyle;rounded=0;orthogonalLoop=1;jettySize=auto;html=1;exitX=0.5;exitY=1;exitDx=0;exitDy=0;" edge="1" parent="Sr5DOC8Win13ZZO1pdSx-2" source="Sr5DOC8Win13ZZO1pdSx-17">
          <mxGeometry relative="1" as="geometry">
            <mxPoint x="100" y="460" as="targetPoint" />
          </mxGeometry>
        </mxCell>
        <mxCell id="Sr5DOC8Win13ZZO1pdSx-17" value="nota transaksi" style="rounded=1;whiteSpace=wrap;html=1;" vertex="1" parent="Sr5DOC8Win13ZZO1pdSx-2">
          <mxGeometry x="40" y="380" width="120" height="40" as="geometry" />
        </mxCell>
        <mxCell id="Sr5DOC8Win13ZZO1pdSx-19" value="melakukan pembayaran" style="rounded=1;whiteSpace=wrap;html=1;" vertex="1" parent="Sr5DOC8Win13ZZO1pdSx-2">
          <mxGeometry x="40" y="460" width="120" height="40" as="geometry" />
        </mxCell>
        <mxCell id="Sr5DOC8Win13ZZO1pdSx-30" style="edgeStyle=orthogonalEdgeStyle;rounded=0;orthogonalLoop=1;jettySize=auto;html=1;exitX=0.5;exitY=1;exitDx=0;exitDy=0;entryX=0.5;entryY=0;entryDx=0;entryDy=0;" edge="1" parent="Sr5DOC8Win13ZZO1pdSx-2" source="Sr5DOC8Win13ZZO1pdSx-27" target="Sr5DOC8Win13ZZO1pdSx-29">
          <mxGeometry relative="1" as="geometry" />
        </mxCell>
        <mxCell id="Sr5DOC8Win13ZZO1pdSx-27" value="cek melalui web" style="rounded=1;whiteSpace=wrap;html=1;" vertex="1" parent="Sr5DOC8Win13ZZO1pdSx-2">
          <mxGeometry x="40" y="620" width="120" height="40" as="geometry" />
        </mxCell>
        <mxCell id="Sr5DOC8Win13ZZO1pdSx-29" value="mengambil pesanan" style="rounded=1;whiteSpace=wrap;html=1;" vertex="1" parent="Sr5DOC8Win13ZZO1pdSx-2">
          <mxGeometry x="40" y="700" width="120" height="40" as="geometry" />
        </mxCell>
        <mxCell id="Sr5DOC8Win13ZZO1pdSx-3" value="Admin" style="swimlane;whiteSpace=wrap;html=1;" vertex="1" parent="Sr5DOC8Win13ZZO1pdSx-4">
          <mxGeometry x="200" width="200" height="860" as="geometry" />
        </mxCell>
        <mxCell id="Sr5DOC8Win13ZZO1pdSx-14" style="edgeStyle=orthogonalEdgeStyle;rounded=0;orthogonalLoop=1;jettySize=auto;html=1;exitX=0.5;exitY=1;exitDx=0;exitDy=0;entryX=0.5;entryY=0;entryDx=0;entryDy=0;" edge="1" parent="Sr5DOC8Win13ZZO1pdSx-3" source="Sr5DOC8Win13ZZO1pdSx-10" target="Sr5DOC8Win13ZZO1pdSx-13">
          <mxGeometry relative="1" as="geometry" />
        </mxCell>
        <mxCell id="Sr5DOC8Win13ZZO1pdSx-10" value="menghitung total pakaian" style="rounded=1;whiteSpace=wrap;html=1;" vertex="1" parent="Sr5DOC8Win13ZZO1pdSx-3">
          <mxGeometry x="40" y="220" width="120" height="40" as="geometry" />
        </mxCell>
        <mxCell id="Sr5DOC8Win13ZZO1pdSx-16" style="edgeStyle=orthogonalEdgeStyle;rounded=0;orthogonalLoop=1;jettySize=auto;html=1;exitX=0.5;exitY=1;exitDx=0;exitDy=0;" edge="1" parent="Sr5DOC8Win13ZZO1pdSx-3" source="Sr5DOC8Win13ZZO1pdSx-13" target="Sr5DOC8Win13ZZO1pdSx-15">
          <mxGeometry relative="1" as="geometry" />
        </mxCell>
        <mxCell id="Sr5DOC8Win13ZZO1pdSx-13" value="menginput data" style="rounded=1;whiteSpace=wrap;html=1;" vertex="1" parent="Sr5DOC8Win13ZZO1pdSx-3">
          <mxGeometry x="40" y="300" width="120" height="40" as="geometry" />
        </mxCell>
        <mxCell id="Sr5DOC8Win13ZZO1pdSx-15" value="nota transaksi" style="rounded=1;whiteSpace=wrap;html=1;" vertex="1" parent="Sr5DOC8Win13ZZO1pdSx-3">
          <mxGeometry x="40" y="380" width="120" height="40" as="geometry" />
        </mxCell>
        <mxCell id="Sr5DOC8Win13ZZO1pdSx-24" style="edgeStyle=orthogonalEdgeStyle;rounded=0;orthogonalLoop=1;jettySize=auto;html=1;exitX=0.5;exitY=1;exitDx=0;exitDy=0;entryX=0.5;entryY=0;entryDx=0;entryDy=0;" edge="1" parent="Sr5DOC8Win13ZZO1pdSx-3" source="Sr5DOC8Win13ZZO1pdSx-21" target="Sr5DOC8Win13ZZO1pdSx-23">
          <mxGeometry relative="1" as="geometry" />
        </mxCell>
        <mxCell id="Sr5DOC8Win13ZZO1pdSx-21" value="proses laundry" style="rounded=1;whiteSpace=wrap;html=1;" vertex="1" parent="Sr5DOC8Win13ZZO1pdSx-3">
          <mxGeometry x="40" y="460" width="120" height="40" as="geometry" />
        </mxCell>
        <mxCell id="Sr5DOC8Win13ZZO1pdSx-26" style="edgeStyle=orthogonalEdgeStyle;rounded=0;orthogonalLoop=1;jettySize=auto;html=1;exitX=0.5;exitY=1;exitDx=0;exitDy=0;entryX=0.5;entryY=0;entryDx=0;entryDy=0;" edge="1" parent="Sr5DOC8Win13ZZO1pdSx-3" source="Sr5DOC8Win13ZZO1pdSx-23" target="Sr5DOC8Win13ZZO1pdSx-25">
          <mxGeometry relative="1" as="geometry" />
        </mxCell>
        <mxCell id="Sr5DOC8Win13ZZO1pdSx-23" value="update status laundry" style="rounded=1;whiteSpace=wrap;html=1;" vertex="1" parent="Sr5DOC8Win13ZZO1pdSx-3">
          <mxGeometry x="40" y="540" width="120" height="40" as="geometry" />
        </mxCell>
        <mxCell id="Sr5DOC8Win13ZZO1pdSx-25" value="pesanan siap diambil" style="rounded=1;whiteSpace=wrap;html=1;" vertex="1" parent="Sr5DOC8Win13ZZO1pdSx-3">
          <mxGeometry x="40" y="620" width="120" height="40" as="geometry" />
        </mxCell>
        <mxCell id="Sr5DOC8Win13ZZO1pdSx-35" style="edgeStyle=orthogonalEdgeStyle;rounded=0;orthogonalLoop=1;jettySize=auto;html=1;exitX=0.5;exitY=1;exitDx=0;exitDy=0;entryX=0.5;entryY=0;entryDx=0;entryDy=0;" edge="1" parent="Sr5DOC8Win13ZZO1pdSx-3" source="Sr5DOC8Win13ZZO1pdSx-31" target="Sr5DOC8Win13ZZO1pdSx-34">
          <mxGeometry relative="1" as="geometry" />
        </mxCell>
        <mxCell id="Sr5DOC8Win13ZZO1pdSx-31" value="update status laundry menjadi &quot;pesanan telah diambil&quot;" style="rounded=1;whiteSpace=wrap;html=1;" vertex="1" parent="Sr5DOC8Win13ZZO1pdSx-3">
          <mxGeometry x="40" y="695" width="120" height="50" as="geometry" />
        </mxCell>
        <mxCell id="Sr5DOC8Win13ZZO1pdSx-34" value="END" style="rounded=1;whiteSpace=wrap;html=1;arcSize=50;" vertex="1" parent="Sr5DOC8Win13ZZO1pdSx-3">
          <mxGeometry x="40" y="780" width="120" height="40" as="geometry" />
        </mxCell>
        <mxCell id="Sr5DOC8Win13ZZO1pdSx-11" style="edgeStyle=orthogonalEdgeStyle;rounded=0;orthogonalLoop=1;jettySize=auto;html=1;exitX=1;exitY=0.5;exitDx=0;exitDy=0;entryX=0;entryY=0.5;entryDx=0;entryDy=0;" edge="1" parent="Sr5DOC8Win13ZZO1pdSx-4" source="Sr5DOC8Win13ZZO1pdSx-8" target="Sr5DOC8Win13ZZO1pdSx-10">
          <mxGeometry relative="1" as="geometry" />
        </mxCell>
        <mxCell id="Sr5DOC8Win13ZZO1pdSx-18" style="edgeStyle=orthogonalEdgeStyle;rounded=0;orthogonalLoop=1;jettySize=auto;html=1;exitX=0;exitY=0.5;exitDx=0;exitDy=0;" edge="1" parent="Sr5DOC8Win13ZZO1pdSx-4" source="Sr5DOC8Win13ZZO1pdSx-15" target="Sr5DOC8Win13ZZO1pdSx-17">
          <mxGeometry relative="1" as="geometry" />
        </mxCell>
        <mxCell id="Sr5DOC8Win13ZZO1pdSx-22" style="edgeStyle=orthogonalEdgeStyle;rounded=0;orthogonalLoop=1;jettySize=auto;html=1;exitX=1;exitY=0.5;exitDx=0;exitDy=0;" edge="1" parent="Sr5DOC8Win13ZZO1pdSx-4" source="Sr5DOC8Win13ZZO1pdSx-19" target="Sr5DOC8Win13ZZO1pdSx-21">
          <mxGeometry relative="1" as="geometry" />
        </mxCell>
        <mxCell id="Sr5DOC8Win13ZZO1pdSx-28" style="edgeStyle=orthogonalEdgeStyle;rounded=0;orthogonalLoop=1;jettySize=auto;html=1;exitX=0;exitY=0.5;exitDx=0;exitDy=0;entryX=1;entryY=0.5;entryDx=0;entryDy=0;" edge="1" parent="Sr5DOC8Win13ZZO1pdSx-4" source="Sr5DOC8Win13ZZO1pdSx-25" target="Sr5DOC8Win13ZZO1pdSx-27">
          <mxGeometry relative="1" as="geometry" />
        </mxCell>
        <mxCell id="Sr5DOC8Win13ZZO1pdSx-32" style="edgeStyle=orthogonalEdgeStyle;rounded=0;orthogonalLoop=1;jettySize=auto;html=1;exitX=1;exitY=0.5;exitDx=0;exitDy=0;" edge="1" parent="Sr5DOC8Win13ZZO1pdSx-4" source="Sr5DOC8Win13ZZO1pdSx-29" target="Sr5DOC8Win13ZZO1pdSx-31">
          <mxGeometry relative="1" as="geometry" />
        </mxCell>
      </root>
    </mxGraphModel>
  </diagram>
</mxfile>
